<svg xmlns="http://www.w3.org/2000/svg" viewBox="0 0 279.682 279.682"><path d="M143.25 55.486c-41.06 0-74.465 33.405-74.465 74.465 0 16.824 5.511 32.711 15.938 45.939 1.998 2.536 4.15 5.033 6.23 7.448 6.212 7.208 12.078 14.017 14.166 21.675.045.165.438 1.773.38 7.247l-.01.791c-.063 4.444-.147 10.528 4.352 15.091 3.081 3.125 7.399 4.645 13.204 4.645h40.272c6.268 0 10.774-1.534 13.776-4.689 4.061-4.267 3.789-9.779 3.608-13.427-.032-.645-.066-1.296-.074-1.944-.065-5.48.345-7.025.362-7.09 2.121-7.657 8.993-15.732 15.057-22.855 2.023-2.377 3.934-4.622 5.714-6.879 10.431-13.23 15.944-29.12 15.944-45.951.001-41.06-33.399-74.466-74.454-74.466zm46.732 111.128c-1.607 2.036-3.429 4.178-5.358 6.445-7.07 8.307-15.084 17.722-18.089 28.572-.429 1.546-.988 4.395-.905 11.273.01.835.049 1.675.091 2.507.032.657.075 1.523.071 2.209-.528.086-1.325.166-2.475.166h-40.272c-1.276 0-2.022-.135-2.405-.237-.198-.977-.17-3.007-.152-4.287l.012-.844c.072-6.919-.483-9.789-.907-11.348-2.98-10.936-10.575-19.749-17.275-27.524-2.066-2.398-4.019-4.664-5.813-6.942-8.32-10.557-12.718-23.232-12.718-36.654 0-32.789 26.676-59.465 59.465-59.465 32.783 0 59.455 26.676 59.455 59.465-.002 13.429-4.401 26.108-12.725 36.664zm-28.216 72.95h-37.041c-7.995 0-14.5 6.505-14.5 14.5v11.117c0 7.995 6.505 14.5 14.5 14.5h37.041c7.995 0 14.5-6.505 14.5-14.5v-11.117c0-7.995-6.505-14.5-14.5-14.5zm-.5 25.118h-36.041v-10.117h36.041v10.117zM143.245 45.779c4.143 0 7.5-3.357 7.5-7.5V7.5c0-4.143-3.357-7.5-7.5-7.5a7.499 7.499 0 00-7.5 7.5v30.779a7.5 7.5 0 007.5 7.5zm98.672-11.181a7.503 7.503 0 00-10.604-.248l-22.77 21.73a7.5 7.5 0 0010.356 10.852l22.77-21.731a7.5 7.5 0 00.248-10.603zm22.356 75.001h-.012l-29.311.047a7.5 7.5 0 00-7.488 7.512 7.5 7.5 0 007.5 7.488h.012l29.311-.047a7.5 7.5 0 007.488-7.512 7.499 7.499 0 00-7.5-7.488zM74.386 64.684a7.5 7.5 0 00-.248-10.604l-22.77-21.73a7.5 7.5 0 00-10.356 10.852l22.77 21.731a7.472 7.472 0 005.177 2.074 7.485 7.485 0 005.427-2.323zm-29.657 44.962l-29.31-.047h-.012a7.5 7.5 0 00-.012 15l29.31.047h.012a7.5 7.5 0 00.012-15z"/></svg>