<svg xmlns="http://www.w3.org/2000/svg" viewBox="0 0 338.203 338.203"><path d="M169.102 0C75.858 0 0 75.858 0 169.102s75.858 169.102 169.102 169.102 169.102-75.858 169.102-169.102S262.345 0 169.102 0zm0 308.203C92.4 308.203 30 245.803 30 169.102S92.4 30 169.102 30s139.102 62.4 139.102 139.102-62.401 139.101-139.102 139.101z"/><path d="M167.738 62.895c.267.021.532.033.8.024 5.269-.032 9.497-4.32 9.475-9.577-.033-5.268-4.329-9.506-9.588-9.475-5.257.033-9.497 4.32-9.464 9.589.025 4.988 3.886 9.062 8.777 9.439zM60.999 205.607c-4.811 2.149-6.965 7.782-4.813 12.583a9.522 9.522 0 007.975 5.615 9.419 9.419 0 004.61-.811c4.799-2.143 6.954-7.774 4.813-12.584-2.151-4.8-7.784-6.955-12.585-4.803zM57.558 149.876c4.569.354 8.851-2.633 9.971-7.236v.01c1.254-5.108-1.872-10.273-6.982-11.528a9.534 9.534 0 00-11.517 6.993c-1.255 5.111 1.871 10.264 6.982 11.518a9.872 9.872 0 001.546.243zM92.567 70.508c-4.13 3.256-4.832 9.25-1.57 13.381a9.517 9.517 0 006.747 3.586 9.446 9.446 0 006.633-2.019 9.519 9.519 0 001.569-13.379c-3.254-4.13-9.248-4.832-13.379-1.569zM289.141 136.4c-1.325-5.091-6.536-8.14-11.617-6.804a9.515 9.515 0 00-6.814 11.627l.002-.01a9.523 9.523 0 008.48 7.096 9.66 9.66 0 003.145-.282c5.091-1.326 8.132-6.537 6.804-11.627zM278.044 204.316c-4.835-2.084-10.444.139-12.527 4.966a9.536 9.536 0 004.966 12.527 9.478 9.478 0 003.047.751 9.551 9.551 0 009.482-5.716c2.083-4.836-.141-10.444-4.968-12.528zM244.653 69.424c-4.176-3.199-10.15-2.42-13.358 1.757-3.198 4.166-2.418 10.15 1.749 13.358l.008.001a9.447 9.447 0 005.059 1.938 9.527 9.527 0 008.301-3.695c3.198-4.178 2.417-10.151-1.759-13.359zM226.618 103.218c-22.619 16.855-49.847 37.337-58.86 44.921-4.786.234-9.505 2.156-13.16 5.811-7.811 7.811-7.811 20.475 0 28.283 7.811 7.811 20.474 7.811 28.285 0 3.656-3.655 5.578-8.376 5.811-13.162 7.576-9.005 28.061-36.233 44.921-58.856a4.999 4.999 0 00-6.997-6.997z"/></svg>